<?xml version="1.0" encoding="UTF-8"?>
<svg version="1.1" xmlns="http://www.w3.org/2000/svg" width="132" height="646">
<path d="M0 0 C43.56 0 87.12 0 132 0 C132 213.18 132 426.36 132 646 C88.44 646 44.88 646 0 646 C0 432.82 0 219.64 0 0 Z " fill="#FDFDFE" transform="translate(0,0)"/>
<path d="M0 0 C6.22220756 3.54101857 9.83967132 7.00338896 12.12890625 13.87109375 C12.81653449 22.1755271 11.97765893 27.69292316 7.25390625 34.62109375 C5.02309612 36.98312801 3.04484788 38.4505068 0.12890625 39.87109375 C-0.86109375 39.87109375 -1.85109375 39.87109375 -2.87109375 39.87109375 C-2.87109375 229.29109375 -2.87109375 418.71109375 -2.87109375 613.87109375 C-6.83109375 613.87109375 -10.79109375 613.87109375 -14.87109375 613.87109375 C-14.87109375 424.45109375 -14.87109375 235.03109375 -14.87109375 39.87109375 C-16.52109375 39.54109375 -18.17109375 39.21109375 -19.87109375 38.87109375 C-24.40562052 35.72468742 -28.17303429 32.2800809 -29.87109375 26.87109375 C-30.71037739 20.16538874 -30.79801439 13.53935197 -27.28125 7.58984375 C-20.47784911 -0.70239002 -10.20200548 -4.0114008 0 0 Z " fill="#20389C" transform="translate(80.87109375,28.12890625)"/>
<path d="M0 0 C43.56 0 87.12 0 132 0 C132 1.32 132 2.64 132 4 C88.44 4 44.88 4 0 4 C0 2.68 0 1.36 0 0 Z " fill="#F4F4F4" transform="translate(0,642)"/>
</svg>
